<?xml version="1.0" encoding="utf-8"?>
<!-- Generator: Adobe Illustrator 27.4.1, SVG Export Plug-In . SVG Version: 6.00 Build 0)  -->
<svg version="1.1" id="Layer_1" xmlns="http://www.w3.org/2000/svg" xmlns:xlink="http://www.w3.org/1999/xlink" x="0px" y="0px"
	 viewBox="0 0 80 80" style="enable-background:new 0 0 80 80;" xml:space="preserve">
<style type="text/css">
	.st0{fill:#009444;}
	.st1{fill:none;stroke:#8DC63F;stroke-width:10;stroke-linecap:round;stroke-miterlimit:10;}
	.st2{fill:#8D5A3B;}
	.st3{fill:#FFFFFF;}
	.st4{fill:none;stroke:#8DC63F;stroke-width:4;stroke-linecap:round;stroke-miterlimit:10;}
	.st5{opacity:0.83;fill:#738336;}
	.st6{fill:#27AAE1;}
</style>
<path class="st0" d="M64.47,4.25L64.47,4.25c-3.47-3.95-9.93-2.49-11.36,2.57l-3.69,13.03L47.73,8.5c-0.89-6-8.07-8.63-12.63-4.63
	l-0.4,0.35c-3.44,3.02-3.65,8.31-0.46,11.6l11.66,12c0.47,0.49,0.77,1.11,0.97,1.76c0.16,0.54,0.66,0.93,1.21,0.99
	c0.29,0.03,0.58,0.07,0.85,0.18c0.92,0.35,2.04-0.39,1.87-1.51l-0.04-0.29l12.37-9.82C67.75,15.46,68.36,8.68,64.47,4.25z"/>
<g>
	<path class="st4" d="M22.33,66.36c8.79-9.84,27.57-28.21,26.93-40.48"/>
</g>
<path class="st2" d="M45.98,65.92c-6.32,10.47-17.94,15.03-25.97,10.19s-9.41-17.25-3.1-27.72c6.06-10.05,17.01-14.65,24.97-10.73
	L31.53,57.2l15.44-15.16C51.16,48.04,51.01,57.59,45.98,65.92z"/>
</svg>
