<?xml version="1.0" encoding="utf-8"?>
<!-- Generator: Adobe Illustrator 27.4.1, SVG Export Plug-In . SVG Version: 6.00 Build 0)  -->
<svg version="1.1" id="Layer_1" xmlns="http://www.w3.org/2000/svg" xmlns:xlink="http://www.w3.org/1999/xlink" x="0px" y="0px"
	 viewBox="0 0 638.97 209.24" style="enable-background:new 0 0 638.97 209.24;" xml:space="preserve">
<style type="text/css">
	.st0{fill:#009444;}
	.st1{fill:none;stroke:#8DC63F;stroke-width:10;stroke-linecap:round;stroke-miterlimit:10;}
	.st2{fill:#8D5A3B;}
	.st3{fill:#FFFFFF;}
	.st4{font-family:'ArialNarrow-Bold';}
	.st5{font-size:159.7962px;}
	.st6{fill:none;stroke:#8DC63F;stroke-width:5;stroke-linecap:round;stroke-miterlimit:10;}
	.st7{opacity:0.83;fill:#738336;}
	.st8{fill:#27AAE1;}
</style>
<g>
	<path class="st0" d="M129.92,19.49L129.92,19.49c-8.39-9.55-24.03-6.02-27.5,6.22l-8.94,31.53l-4.08-27.47
		c-2.15-14.52-19.53-20.89-30.56-11.2l-0.96,0.85c-8.33,7.32-8.83,20.11-1.11,28.07l28.22,29.05c1.15,1.18,1.87,2.67,2.34,4.25
		c0.39,1.31,1.59,2.26,2.92,2.4c0.7,0.07,1.4,0.18,2.06,0.43c2.23,0.86,4.93-0.95,4.53-3.66l-0.11-0.71l29.94-23.76
		C137.86,46.61,139.34,30.2,129.92,19.49z"/>
	<g>
		<path class="st1" d="M27.94,169.8c21.28-23.82,66.72-68.27,65.18-97.95"/>
	</g>
	<path class="st2" d="M85.18,168.72c-15.28,25.34-43.42,36.38-62.84,24.67c-19.42-11.71-22.77-41.75-7.49-67.09
		c14.66-24.31,41.16-35.46,60.43-25.97l-25.07,47.3l37.37-36.68C97.7,125.46,97.33,148.57,85.18,168.72z"/>
	<text transform="matrix(1 0 0 1 119.244 176.6994)" class="st3 st4 st5">S embra</text>
	<rect x="216.12" y="91.81" class="st3" width="16.76" height="84.89"/>
	<path class="st0" d="M244.41,49.91c-1.34-1.67-3.07-3.09-5.2-4.13c-10.51-5.14-22.64,3.02-21.84,14.7l1.37,19.94
		c0.19,2.81,3.36,4.36,5.69,2.78l16.58-11.16C248.76,66.83,249.69,56.49,244.41,49.91z M223.48,78.94
		c-0.74-0.36,1.01-5.48,3.92-11.42c2.91-5.94,5.87-10.46,6.61-10.1c0.75,0.37-1.01,5.48-3.91,11.42
		C227.19,74.78,224.23,79.3,223.48,78.94z"/>
</g>
</svg>
